<svg width="210" height="104" viewBox="0 0 210 104" fill="none" xmlns="http://www.w3.org/2000/svg">
<mask id="mask0_388_7315" style="mask-type:luminance" maskUnits="userSpaceOnUse" x="15" y="3" width="70" height="93">
<path d="M58.7392 45.2841C58.836 45.0519 59.2132 44.5295 59.397 44.2973C60.0549 43.3106 60.5773 42.3238 60.9933 41.2403C63.3924 35.494 63.2086 31.073 62.1251 24.9493C61.4673 21.4667 60.616 18.0808 59.6776 14.7819C58.5941 11.0671 57.9363 7.95206 58.6425 3.85995C57.8395 4.23724 56.756 7.48771 56.4271 8.65826C55.4887 11.9571 55.5758 14.9173 55.866 18.3516C56.0111 20.4219 56.4271 22.6372 55.7209 24.6107C55.4404 25.4137 54.8696 26.352 54.2601 26.5842C53.9796 22.4437 53.4572 19.6673 51.5804 16.6006C51.2032 15.9428 50.7291 15.2366 50.2648 14.7142C49.7908 14.1918 49.3264 13.5823 48.7556 13.118C47.5754 12.228 46.4048 11.2316 44.9441 10.7188C46.3565 12.7407 47.8173 17.1714 48.0494 19.5222C48.4267 23.2854 47.4883 26.5358 46.163 29.4574C45.5535 30.7731 44.7022 32.3306 43.8606 33.2206C43.6768 33.4528 43.4349 33.7817 43.2027 34.0235C42.5449 34.8748 41.9355 35.7165 41.4131 36.6549C40.0006 39.1024 38.6366 42.3529 38.5882 45.7871C38.3077 45.642 37.8337 45.2647 37.6015 45.0326C35.4829 43.2912 34.264 39.7118 33.7416 37.0321C32.8032 32.0887 33.2192 29.0801 33.5094 24.2721C33.1805 24.6978 32.8999 25.6845 32.7064 26.2069C32.4743 26.8648 32.2324 27.4742 31.9519 28.1321C31.4778 29.4477 31.0135 30.7247 30.4911 31.992C29.456 34.7201 28.6047 37.0321 28.0436 40.1859C27.4825 43.4363 27.3857 46.8223 27.5695 50.2082C27.7533 52.5589 28.0436 54.9194 28.5563 57.2218C28.7014 57.928 28.9336 58.731 29.0303 59.3404C28.5079 59.6693 27.2406 59.7661 26.486 59.7661C22.481 59.7661 19.9948 56.6124 18.6211 53.1781C17.8665 51.34 17.586 49.2214 17.3925 48.7571C15.506 54.7356 14.8482 61.1398 16.1252 67.6794C16.6476 70.5526 17.5376 73.3774 18.7662 75.7282C19.9464 78.0306 21.2137 80.3911 22.7712 82.413C23.5258 83.4481 25.5477 85.7989 26.5344 86.6502C27.9952 87.9175 29.3592 89.0977 31.0522 90.1328C37.0307 93.8476 44.3733 96.1114 52.0932 95.7824C52.1415 95.4535 50.8259 92.8125 50.584 92.2514C50.2067 91.4485 50.0616 91.1196 49.5489 90.6939C48.2332 89.6104 47.7108 90.0361 46.6273 90.3166C46.2984 90.4134 45.9211 90.5004 45.5922 90.5488C44.0347 90.8293 39.991 91.3517 38.7624 90.9745C38.1045 90.7906 37.6789 90.365 37.4951 89.6588C37.4467 89.2331 37.4951 88.8558 37.4467 88.4302C37.3983 88.0529 37.35 87.6756 37.3016 87.2983C37.2049 86.447 37.1178 85.9343 36.3632 85.7408C35.7538 85.5957 35.0959 85.1314 35.183 84.3768C35.2797 83.6222 36.1697 83.2933 36.0343 82.7322C35.8892 82.2098 34.8057 82.1227 34.3897 81.8422C33.7319 81.2811 34.0608 80.5749 34.5348 80.1009C34.9121 79.6268 34.9121 78.5917 34.6799 77.9823C34.3994 77.3728 33.7416 77.3244 32.987 77.0922C32.513 76.9471 31.3424 76.715 31.0522 76.5311C30.2976 76.0088 31.0522 75.3026 31.3327 74.8866L34.5348 70.4655C36.7502 67.4956 36.6534 66.5089 37.0307 62.794C37.3596 59.9209 37.7853 57.3766 39.4299 55.0258C39.9039 54.368 41.1712 52.9556 42.2547 52.7621C43.0576 53.5167 43.2898 55.9158 43.2898 57.2799C43.2414 57.7539 43.1931 58.1699 43.1931 58.6439C43.1931 58.9728 43.522 60.9076 43.522 62.4071C43.522 64.1484 43.2898 65.7446 42.9996 67.4473C42.719 69.1402 42.245 70.4172 41.9161 71.8683C43.4736 70.7848 45.6309 66.0735 46.579 63.8679C46.8112 63.21 47.1401 62.7844 47.3819 62.1265C47.943 60.569 47.9043 59.2534 47.7108 57.5604C49.3071 58.2666 49.4038 61.7009 49.1232 62.9779C48.8911 64.013 47.2368 70.2721 46.8208 71.3072C46.4919 72.1972 46.2597 73.1452 46.163 74.2287C46.0663 75.3122 46.1146 76.3957 46.3952 77.4308C46.4919 77.9532 46.6274 78.3692 46.7725 78.7949C46.9176 79.1722 47.053 79.5978 47.2949 79.8784L47.3916 79.9751C47.2949 78.2821 47.1594 76.773 47.44 75.0317C47.7689 73.1452 48.2913 73.0098 48.4751 72.3036C49.278 69.4788 50.8259 66.9345 52.1512 64.5837C52.3834 66.0929 50.7388 72.1585 50.6904 74.3738C50.6421 77.4308 51.5804 80.6329 53.6991 82.6548C54.7825 83.6899 55.866 84.164 57.1333 84.8702C58.3619 85.5764 59.5325 86.1858 60.7611 86.892C61.4673 87.3177 67.8231 90.9358 67.9586 90.9358C68.1424 90.9841 70.735 88.8171 71.1123 88.5366C71.6347 88.1109 72.1474 87.782 72.7569 87.3564C75.3882 85.3829 77.7003 83.2159 79.2094 79.6849C79.8189 78.2725 80.2445 76.9084 80.3897 75.1671C80.6702 70.7461 81.9472 65.6092 84.8591 62.7844C84.2012 62.8811 83.1177 63.21 82.4599 63.3938C80.7186 63.9162 79.074 64.9514 77.8454 66.2186C77.6132 66.4508 77.3714 66.8281 77.1392 66.9732C77.0425 66.2187 77.0908 65.0868 77.0908 64.2452C77.0424 61.6138 76.8103 58.6439 77.0425 56.0513C77.1876 54.4067 77.5648 52.8492 78.1259 51.4851C78.5516 50.4984 79.5383 48.7571 80.4767 48.2347C79.0159 48.3798 76.4717 49.5503 75.2528 50.3533C74.9722 50.4984 74.7304 50.7305 74.4014 50.9144C73.4631 51.4368 72.8923 52.3268 72.1861 53.0813C71.3348 54.0681 68.3262 57.9764 67.9005 58.9148C67.7554 58.818 67.8521 58.9148 67.7167 58.731C67.291 57.8796 67.4362 55.8094 67.5329 54.9194C67.678 53.6521 67.9102 52.4235 68.1424 51.2046C68.8002 48.196 69.5064 48.1476 70.2126 44.4715C70.7737 41.5015 70.7737 39.7215 69.6031 37.1289C68.8486 35.5714 67.9586 34.4976 66.8751 33.2206C66.6913 33.0368 65.8399 32.2338 65.8399 32.2338C65.6561 33.7914 65.4143 35.0103 65.0854 36.5194C64.3308 40.0504 63.8568 40.6115 61.506 43.0591C61.0416 43.5911 59.3003 45.0519 58.7392 45.2841Z" fill="white"/>
</mask>
<g mask="url(#mask0_388_7315)">
<path d="M84.8592 3.85996H14.8677V96.121H84.8592V3.85996Z" fill="url(#paint0_linear_388_7315)"/>
</g>
<mask id="mask1_388_7315" style="mask-type:luminance" maskUnits="userSpaceOnUse" x="37" y="0" width="6" height="26">
<path d="M38.7719 25.046C39.8554 24.1077 41.0743 22.1245 41.6451 20.151C42.3029 17.984 42.2062 15.4397 41.4613 13.3695C40.2811 10.0707 39.1976 5.22398 39.6716 1.6059C39.72 1.04481 39.9038 0.474038 39.9521 0.00968552L38.917 2.64102C37.9303 5.36909 36.9822 9.60631 37.9786 12.3344C38.917 15.0625 39.8651 19.0675 39.5749 22.0277C39.4781 23.3918 39.1976 24.0109 38.7719 25.046Z" fill="white"/>
</mask>
<g mask="url(#mask1_388_7315)">
<path d="M42.3127 -1.23978e-05H36.9919V25.046H42.3127V-1.23978e-05Z" fill="url(#paint1_linear_388_7315)"/>
</g>
<mask id="mask2_388_7315" style="mask-type:luminance" maskUnits="userSpaceOnUse" x="72" y="21" width="5" height="21">
<path d="M74.924 41.1823C75.7269 40.4277 76.5202 38.3091 76.6653 36.8483C76.8975 34.8265 76.4331 33.2689 75.6786 31.7211C74.0824 28.3836 73.1827 25.7426 73.2794 21.9794C72.5249 23.3918 72.1476 27.5806 72.4281 29.6025C72.5732 30.686 72.757 31.0633 73.1827 31.8662C73.7921 33.2302 74.3145 34.5459 74.7402 36.1034C75.3013 38.0769 75.3497 39.112 74.924 41.1823Z" fill="white"/>
</mask>
<g mask="url(#mask2_388_7315)">
<path d="M76.8974 21.9794H72.1475V41.1823H76.8974V21.9794Z" fill="url(#paint2_linear_388_7315)"/>
</g>
<mask id="mask3_388_7315" style="mask-type:luminance" maskUnits="userSpaceOnUse" x="21" y="31" width="4" height="20">
<path d="M24.7448 50.7402C23.0034 48.2927 23.3807 43.9104 23.9418 40.6212C24.4158 37.9899 22.1521 33.2786 21.0203 31.7211C21.5814 33.5592 21.8716 34.7297 21.8716 36.8483C21.8232 41.4145 20.2754 43.7169 22.0554 47.4897C22.6745 48.7667 23.758 50.1307 24.7448 50.7402Z" fill="white"/>
</mask>
<g mask="url(#mask3_388_7315)">
<path d="M24.7448 31.7211H20.2754V50.7402H24.7448V31.7211Z" fill="url(#paint3_linear_388_7315)"/>
</g>
<path d="M79.6253 6.6654H80.0413L81.1054 8.96781H82.4501L81.2215 6.46224C82.0148 6.22039 82.2954 5.67865 82.2954 4.96277C82.2954 3.44395 81.1345 3.32786 80.2154 3.32786H78.3967V8.96781H79.6156V6.6654H79.6253ZM79.6253 4.2082C80.3219 4.2082 80.467 4.2082 80.6604 4.27592C80.9023 4.37266 81.0281 4.55646 81.0281 4.9531C81.0281 5.26267 80.999 5.57223 80.6024 5.70767C80.4283 5.76571 80.3219 5.76571 79.6156 5.76571V4.2082H79.6253Z" fill="#FC7F00"/>
<path d="M80.4283 1.05446C83.2919 1.05446 85.6233 3.33753 85.6233 6.15267C85.6233 8.96781 83.3015 11.2509 80.4283 11.2509C77.5552 11.2509 75.2334 8.96781 75.2334 6.15267C75.2334 3.33753 77.5552 1.05446 80.4283 1.05446Z" stroke="#FC7900" stroke-width="0.928802" stroke-miterlimit="2.6131" stroke-linecap="round" stroke-linejoin="round"/>
<path d="M200.156 68.1832L200.32 66.9643H200.224C199.972 67.5931 199.459 68.0381 198.685 68.0381H198.347C197.95 68.0381 197.902 67.9704 197.902 67.6415V65.8808L199.546 66.0259V65.5229L197.902 65.755V64.2072C197.902 63.8783 197.95 63.8106 198.347 63.8106H198.531C199.305 63.8106 199.817 64.2556 200.069 64.8844H200.166L200.001 63.6654H196.48V63.7428C196.712 63.8009 196.867 64.004 196.867 64.2169V67.6415C196.867 67.864 196.712 68.0575 196.48 68.1155V68.1735H200.156V68.1832ZM192.03 66.2678V64.2652C192.03 63.9363 192.204 63.8299 192.504 63.8299H192.784C193.355 63.8299 193.578 64.2846 193.578 64.7393C193.578 65.5519 193.074 66.0356 192.03 66.2678ZM190.608 68.1348V68.1929H192.407V68.1348C192.175 68.0768 192.02 67.8833 192.02 67.6608V66.4419C192.155 66.4129 192.301 66.3838 192.446 66.3548L193.539 67.9317C193.713 68.1735 193.79 68.1929 194.081 68.1929H195.203V68.1348C195.029 68.0865 194.738 67.8737 194.526 67.5738L193.461 66.0936C194.129 65.8711 194.642 65.5132 194.651 64.836C194.671 63.8493 193.752 63.6945 192.717 63.6945H190.598V63.7428C190.83 63.8009 190.985 63.9944 190.985 64.2169V67.6415C190.995 67.8833 190.83 68.0671 190.608 68.1348ZM184.958 64.9037C185.171 64.362 185.567 63.8589 186.177 63.8589H186.419C186.564 63.8589 186.583 64.004 186.583 64.2265V67.6511C186.583 67.8833 186.428 68.0671 186.196 68.1252V68.1832H187.996V68.1252C187.763 68.0671 187.609 67.8736 187.609 67.6511V64.2265C187.609 64.004 187.628 63.8589 187.773 63.8589H188.015C188.624 63.8589 189.021 64.362 189.234 64.9037H189.331L189.166 63.6848H185.016L184.852 64.9037H184.958ZM180.034 68.1832V68.1252C179.695 68.0478 179.463 67.7866 179.463 67.3996V64.4684L182.878 68.1735H183.033V64.4587C183.033 64.0718 183.265 63.8106 183.604 63.7332V63.6751H182.307V63.7428C182.646 63.8202 182.878 64.0814 182.878 64.4684V66.7224L180.092 63.6848H178.767V63.7428C178.999 63.8009 179.308 64.0621 179.308 64.4007V67.3996C179.308 67.7866 179.076 68.0478 178.738 68.1252V68.1832H180.034ZM177.306 68.1832L177.47 66.9643H177.374C177.122 67.5931 176.609 68.0381 175.835 68.0381H175.497C175.1 68.0381 175.052 67.9704 175.052 67.6415V65.8808L176.696 66.0259V65.5229L175.052 65.755V64.2072C175.052 63.8783 175.1 63.8106 175.497 63.8106H175.681C176.455 63.8106 176.967 64.2556 177.219 64.8844H177.315L177.151 63.6654H173.63V63.7428C173.862 63.8009 174.017 64.004 174.017 64.2169V67.6415C174.017 67.864 173.862 68.0575 173.63 68.1155V68.1735H177.306V68.1832ZM170.234 68.2219C171.327 68.2219 172.014 67.6415 172.372 66.7418L172.314 66.7128C171.966 67.1868 171.366 67.5834 170.718 67.5834C169.489 67.5834 168.87 66.7611 168.87 65.726C168.87 64.9618 169.286 63.8009 170.312 63.8009C170.834 63.8009 171.085 64.0814 171.085 64.5361C171.085 64.6135 171.056 64.6909 171.056 64.7683C171.056 65.0101 171.269 65.1746 171.53 65.1746C171.84 65.1746 172.072 64.9811 172.072 64.7006C172.072 63.8783 170.94 63.6654 170.234 63.6654C168.715 63.6654 167.825 64.6232 167.825 65.9679C167.825 67.3222 168.686 68.2219 170.234 68.2219ZM160.405 63.6848V63.7428C160.667 63.7815 160.889 64.0331 161.053 64.2846L162.437 66.4032V67.6511C162.437 67.8833 162.282 68.0671 162.05 68.1252V68.1832H163.849V68.1252C163.617 68.0671 163.462 67.8736 163.462 67.6511V66.4129L164.459 64.5361C164.778 63.9267 165.039 63.7815 165.358 63.7525V63.6945H163.994V63.7428C164.304 63.7525 164.41 63.946 164.41 64.1491C164.41 64.2846 164.343 64.42 164.294 64.5264L163.443 66.1323L162.176 64.1782C162.021 63.9363 162.156 63.7815 162.33 63.7428V63.6848H160.405ZM154.756 64.9037C154.969 64.362 155.365 63.8589 155.975 63.8589H156.216C156.362 63.8589 156.381 64.004 156.381 64.2265V67.6511C156.381 67.8833 156.226 68.0671 155.994 68.1252V68.1832H157.793V68.1252C157.561 68.0671 157.406 67.8736 157.406 67.6511V64.2265C157.406 64.004 157.426 63.8589 157.571 63.8589H157.813C158.422 63.8589 158.819 64.362 159.032 64.9037H159.138L158.974 63.6848H154.823L154.659 64.9037H154.756ZM148.622 63.6848V63.7428C148.855 63.8009 149.009 63.9944 149.009 64.2169V66.6547C149.009 67.893 149.967 68.2219 151.109 68.2219C152.347 68.2219 152.782 67.5254 152.782 66.6547V64.4684C152.782 64.0331 153.063 63.8202 153.401 63.7428V63.6848H151.999V63.7428C152.337 63.8202 152.618 64.0331 152.618 64.4684V66.6547C152.618 67.3125 152.26 68.0671 151.254 68.0671C150.499 68.0671 150.035 67.6318 150.035 66.6354V64.2169C150.035 63.9847 150.19 63.8009 150.422 63.7428V63.6848H148.622ZM144.24 66.2484L145.053 64.2459C145.072 64.3136 145.091 64.3717 145.111 64.4297L145.691 66.1227L144.24 66.2484ZM142.721 68.1832H144.066V68.1252C143.727 68.0478 143.621 67.7672 143.776 67.3996L144.163 66.4516L145.875 66.5967L146.252 67.6898C146.339 67.9414 146.185 68.0865 146.01 68.1252V68.1832H147.877V68.1252C147.674 68.1155 147.432 67.8543 147.336 67.5834L145.962 63.6848L145.856 63.6461C145.749 63.6945 144.995 63.8299 144.762 63.8396V63.9363C144.83 63.946 144.888 63.9847 144.937 64.0331L143.534 67.419C143.379 67.7769 143.176 68.0284 142.721 68.1348V68.1832ZM141.338 68.1832L141.502 66.9643H141.406C141.154 67.5931 140.641 68.0381 139.867 68.0381H139.529C139.132 68.0381 139.084 67.9704 139.084 67.6415V65.8808L140.728 66.0259V65.5229L139.084 65.755V64.2072C139.084 63.8783 139.132 63.8106 139.529 63.8106H139.713C140.487 63.8106 140.999 64.2556 141.251 64.8844H141.348L141.183 63.6654H137.662V63.7428C137.894 63.8009 138.049 64.004 138.049 64.2169V67.6415C138.049 67.864 137.894 68.0575 137.662 68.1155V68.1735H141.338V68.1832ZM133.521 66.2291V64.2265C133.521 63.8976 133.57 63.8299 133.966 63.8299H134.15C134.663 63.8299 135.098 64.0814 135.098 64.6038C135.098 65.5712 133.782 65.6196 133.521 66.2291ZM134.421 65.8227C134.972 65.8227 135.243 66.2678 135.243 66.8192C135.243 67.4577 135.079 68.0478 134.256 68.0478H133.947C133.676 68.0478 133.531 67.9414 133.531 67.6124V66.5677C133.628 66.1904 133.976 65.8227 134.421 65.8227ZM132.486 64.2265V67.6511C132.486 67.8736 132.331 68.0671 132.099 68.1252V68.1832H134.305C135.321 68.1832 136.327 67.9897 136.327 66.9062C136.327 66.2 135.795 65.6583 134.982 65.6196C135.524 65.5132 136.036 65.2036 136.036 64.6619C136.036 63.8202 135.117 63.6945 134.373 63.6945H132.099V63.7428C132.341 63.8106 132.486 64.004 132.486 64.2265ZM126.13 66.2484L126.943 64.2459C126.962 64.3136 126.982 64.3717 127.001 64.4297L127.591 66.1227L126.13 66.2484ZM124.611 68.1832H125.956V68.1252C125.618 68.0478 125.521 67.7672 125.666 67.3996L126.053 66.4516L127.765 66.5967L128.142 67.6898C128.23 67.9414 128.075 68.0865 127.901 68.1252V68.1832H129.768V68.1252C129.565 68.1155 129.323 67.8543 129.226 67.5834L127.852 63.6848L127.746 63.6461C127.639 63.6945 126.885 63.8299 126.653 63.8396V63.9363C126.72 63.946 126.778 63.9847 126.827 64.0331L125.424 67.419C125.279 67.7769 125.066 68.0284 124.611 68.1348V68.1832ZM123.228 68.1832L123.393 66.9643H123.296C123.044 67.5931 122.532 68.0381 121.758 68.0381H121.496C121.1 68.0381 121.051 67.9704 121.051 67.6415V64.2169C121.051 63.9847 121.206 63.8009 121.438 63.7428V63.6848H119.639V63.7428C119.871 63.8009 120.026 63.9944 120.026 64.2169V67.6415C120.026 67.8736 119.871 68.0575 119.639 68.1155V68.1735H123.228V68.1832ZM114.773 66.2484L115.586 64.2459C115.605 64.3136 115.624 64.3717 115.644 64.4297L116.224 66.1227L114.773 66.2484ZM113.254 68.1832H114.599V68.1252C114.26 68.0478 114.154 67.7672 114.309 67.3996L114.696 66.4516L116.408 66.5967L116.785 67.6898C116.872 67.9414 116.717 68.0865 116.543 68.1252V68.1832H118.41V68.1252C118.207 68.1155 117.965 67.8543 117.869 67.5834L116.495 63.6848L116.389 63.6461C116.282 63.6945 115.528 63.8299 115.295 63.8396V63.9363C115.363 63.946 115.421 63.9847 115.47 64.0331L114.067 67.419C113.912 67.7769 113.709 68.0284 113.254 68.1348V68.1832ZM106.057 63.6848V63.7428C106.26 63.7525 106.482 64.0137 106.598 64.2846L108.233 68.1832H108.678C109.056 67.1674 109.365 66.3355 109.723 65.3584L110.903 68.1832H111.339C111.813 66.8966 112.18 65.9098 112.683 64.5264C112.858 64.0621 113.041 63.8493 113.573 63.7428V63.6848H112.171V63.7428C112.674 63.7622 112.606 64.2556 112.509 64.5264L111.561 67.1384L110.323 64.1782C110.217 63.9266 110.391 63.7815 110.565 63.7428V63.6848H108.727V63.7428C108.93 63.7525 109.152 64.0137 109.268 64.2846L109.626 65.1456L108.901 67.1384L107.663 64.1782C107.556 63.9266 107.73 63.7815 107.904 63.7428V63.6848H106.057ZM100.958 67.1965C100.958 67.951 101.771 68.2316 102.477 68.2316C103.57 68.2316 104.412 67.7866 104.412 66.6741V64.2362C104.412 64.004 104.567 63.8202 104.799 63.7622V63.7042H102.99V63.7428C103.222 63.8009 103.377 63.9944 103.377 64.2169V66.6354C103.377 67.1771 103.251 68.0768 102.477 68.0768C102.061 68.0768 101.916 67.7382 101.916 67.4383C101.916 67.2448 102.023 67.1191 102.023 66.974C102.023 66.7902 101.839 66.6354 101.597 66.6354C101.162 66.6354 100.958 66.9256 100.958 67.1965Z" fill="#EC1C24"/>
<path d="M180.498 75.3323C179.976 75.9224 179.705 76.3287 179.705 76.5609C179.705 76.6866 179.753 76.7543 179.86 76.7543C179.947 76.7543 180.063 76.706 180.198 76.6189C180.334 76.5318 180.556 76.3674 180.846 76.1352V76.4448C180.421 76.8608 180.092 77.1703 179.869 77.3541C179.637 77.5379 179.453 77.6347 179.308 77.6347C179.066 77.6347 178.941 77.4702 178.941 77.151C178.941 77.0542 178.96 76.9575 178.989 76.8704C179.018 76.7737 179.057 76.6769 179.115 76.5802C179.163 76.4835 179.25 76.3384 179.357 76.1545C179.463 75.9707 179.589 75.7579 179.724 75.5161C179.55 75.6031 179.337 75.7773 179.086 76.0288C178.921 76.1932 178.776 76.348 178.66 76.4931C178.544 76.6382 178.418 76.8027 178.283 76.9768C178.147 77.1606 178.051 77.2767 177.993 77.3348C177.935 77.3928 177.867 77.4218 177.809 77.4218C177.712 77.4218 177.625 77.3251 177.548 77.122C177.47 76.9188 177.422 76.6866 177.422 76.4158C177.422 76.2513 177.441 76.1255 177.48 76.0288C177.519 75.932 177.586 75.8063 177.702 75.6321C177.906 75.3129 178.089 75.0807 178.234 74.9356C178.389 74.7905 178.525 74.7131 178.67 74.7131C178.767 74.7131 178.844 74.7325 178.902 74.7615C178.96 74.7905 178.989 74.8486 178.989 74.9163C178.989 74.9453 178.979 74.9743 178.96 75.013C178.941 75.042 178.921 75.0711 178.902 75.1001C178.883 75.1291 178.834 75.1775 178.757 75.2549C178.283 75.7773 178.051 76.1158 178.051 76.2706C178.051 76.3577 178.08 76.3964 178.138 76.3964C178.176 76.3964 178.244 76.3383 178.351 76.2223C178.457 76.1062 178.583 75.9514 178.747 75.7676C178.912 75.5838 179.105 75.3903 179.328 75.1871C179.55 74.984 179.802 74.7905 180.092 74.597C180.247 74.4809 180.382 74.4326 180.489 74.4326C180.537 74.4326 180.585 74.5003 180.634 74.6261C180.682 74.7615 180.701 74.8873 180.701 75.0227C180.692 75.1001 180.624 75.1968 180.498 75.3323ZM175.313 76.6769C175.313 76.8124 175.361 76.8801 175.468 76.8801C175.603 76.8801 175.835 76.6576 176.164 76.2126C176.155 76.1255 176.145 76.0772 176.145 76.0481C176.145 75.8837 176.213 75.6902 176.338 75.458C176.464 75.2258 176.619 75.0227 176.783 74.8486C176.948 74.6744 177.083 74.5874 177.161 74.5874C177.267 74.5874 177.315 74.7131 177.315 74.9646C177.315 75.1678 177.267 75.3709 177.18 75.5741C177.093 75.7773 176.967 75.9804 176.793 76.1836C176.822 76.2126 176.851 76.2416 176.88 76.2706C176.909 76.2997 176.948 76.319 176.987 76.3384C177.025 76.3577 177.064 76.3674 177.103 76.3674C177.199 76.3674 177.325 76.29 177.48 76.1255V76.4448C177.248 76.6963 177.035 76.8124 176.861 76.8124C176.754 76.8124 176.677 76.8027 176.619 76.7737C176.561 76.7447 176.483 76.706 176.396 76.6382C175.845 77.2961 175.429 77.6347 175.139 77.6347C175.032 77.6347 174.945 77.596 174.878 77.5089C174.81 77.4218 174.781 77.3154 174.781 77.1703C174.781 77.1026 174.81 76.8317 174.868 76.3577C174.752 76.4931 174.616 76.6479 174.462 76.8317C174.307 77.0155 174.181 77.151 174.084 77.2477C173.988 77.3445 173.901 77.4218 173.813 77.4702C173.726 77.5283 173.649 77.5476 173.562 77.5476C173.485 77.5476 173.388 77.4992 173.272 77.3928C173.156 77.2961 173.069 77.1606 172.991 76.9865C172.914 76.8221 172.875 76.6383 172.875 76.4448C172.875 76.261 172.904 76.0965 172.952 75.9611C173.01 75.8256 173.127 75.6225 173.32 75.3516C173.494 75.1098 173.649 74.9163 173.784 74.7615C173.92 74.6067 174.036 74.4906 174.152 74.4036C174.258 74.3165 174.355 74.2778 174.423 74.2778C174.462 74.2778 174.52 74.2875 174.587 74.3068C174.655 74.3262 174.713 74.3552 174.771 74.3842C174.82 74.4132 174.849 74.4519 174.849 74.4906C174.849 74.6067 174.8 74.7518 174.694 74.9259C174.597 75.1001 174.442 75.2936 174.249 75.5064C174.055 75.7192 173.823 75.9417 173.572 76.1642C173.504 76.3674 173.465 76.5415 173.465 76.6673C173.465 76.706 173.475 76.7447 173.504 76.7834C173.533 76.8221 173.562 76.8414 173.591 76.8414C173.717 76.8414 173.949 76.6479 174.297 76.2706C174.645 75.8837 175.11 75.3032 175.681 74.5293C175.7 74.5003 175.748 74.4809 175.816 74.4809C175.893 74.4809 175.961 74.5003 176.019 74.5293C176.077 74.5583 176.116 74.6067 176.116 74.6647C176.116 74.6938 176.038 74.8776 175.884 75.1871C175.729 75.5064 175.593 75.7966 175.477 76.0578C175.371 76.348 175.313 76.5415 175.313 76.6769ZM169.963 73.8618C169.75 74.0843 169.538 74.3745 169.325 74.7325C169.112 75.0904 168.938 75.4387 168.802 75.7773C168.667 76.1159 168.609 76.377 168.609 76.5609C168.609 77.0059 168.822 77.2284 169.228 77.2284C169.518 77.2284 169.895 77.0349 170.35 76.6382C170.814 76.2416 171.211 75.7773 171.55 75.2258C171.888 74.6744 172.062 74.1714 172.062 73.7167C172.062 73.3878 171.927 73.2233 171.666 73.2233C171.463 73.2233 171.211 73.3007 170.921 73.4652C170.631 73.6296 170.35 73.8521 170.079 74.152C169.983 74.2584 169.789 74.5196 169.508 74.9453C169.567 74.6551 169.721 74.2971 169.963 73.8618ZM171.095 72.9525C171.172 72.9331 171.259 72.9138 171.337 72.8944C171.424 72.8751 171.501 72.8557 171.588 72.8364C171.675 72.817 171.753 72.817 171.84 72.817C172.014 72.817 172.159 72.8557 172.285 72.9331C172.411 73.0105 172.507 73.1169 172.565 73.2523C172.624 73.3878 172.653 73.5329 172.653 73.6877C172.653 73.9295 172.604 74.2101 172.517 74.5196C172.43 74.8292 172.304 75.1485 172.14 75.4774C171.975 75.7966 171.782 76.1062 171.559 76.3964C171.259 76.7834 170.892 77.1026 170.466 77.3348C170.041 77.5766 169.654 77.6927 169.305 77.6927C169.044 77.6927 168.812 77.625 168.618 77.4799C168.415 77.3348 168.261 77.1316 168.154 76.8607C168.038 76.5899 167.99 76.2706 167.99 75.903C167.99 75.4097 168.125 74.9163 168.386 74.4326C168.657 73.9392 168.996 73.4942 169.402 73.0976C169.808 72.7009 170.224 72.3817 170.64 72.1398C171.056 71.898 171.395 71.7819 171.656 71.7819C171.869 71.7819 172.033 71.8496 172.15 71.9754C172.266 72.1011 172.372 72.314 172.469 72.6042C172.188 72.6139 171.946 72.6429 171.743 72.7009C171.53 72.7493 171.318 72.8364 171.095 72.9525ZM162.388 76.4931V76.2029C162.553 76.0094 162.669 75.845 162.756 75.7095C162.659 75.6805 162.592 75.6322 162.543 75.5838C162.495 75.5354 162.475 75.4677 162.475 75.371C162.475 75.2645 162.524 75.1291 162.611 74.9646C162.698 74.8002 162.814 74.6454 162.94 74.5003C163.075 74.3552 163.191 74.2681 163.298 74.2197C163.336 74.2004 163.385 74.1907 163.424 74.1907C163.482 74.1907 163.511 74.2197 163.511 74.2778C163.511 74.3262 163.462 74.4326 163.366 74.5874C163.985 74.4906 164.372 74.4422 164.536 74.4422C164.594 74.4422 164.642 74.4519 164.662 74.4616C164.71 74.4906 164.749 74.5487 164.788 74.6454C164.817 74.7421 164.836 74.8389 164.836 74.9453C164.836 75.0033 164.807 75.0711 164.749 75.1484C164.691 75.2258 164.594 75.3323 164.468 75.4677C164.314 75.6418 164.178 75.8256 164.072 76.0288C163.965 76.2319 163.907 76.377 163.907 76.4835C163.907 76.6286 163.994 76.6963 164.168 76.6963C164.352 76.6963 164.671 76.5125 165.116 76.1352V76.4351C164.865 76.6963 164.662 76.8994 164.497 77.0446C164.333 77.1993 164.188 77.3154 164.052 77.4025C163.917 77.4896 163.791 77.5379 163.685 77.5379C163.559 77.5379 163.453 77.4799 163.375 77.3638C163.288 77.2477 163.249 77.0833 163.249 76.8607C163.249 76.735 163.278 76.5802 163.346 76.4254C163.414 76.261 163.511 76.0868 163.636 75.8933C163.762 75.6999 163.907 75.5064 164.062 75.3129C163.975 75.3323 163.888 75.3516 163.781 75.371C163.675 75.3903 163.569 75.4096 163.453 75.429C163.336 75.4483 163.249 75.4677 163.182 75.4774C163.017 75.8547 162.746 76.1932 162.388 76.4931ZM161.015 75.8353C160.579 76.4061 160.25 76.8221 160.028 77.0639C159.805 77.3058 159.622 77.4315 159.477 77.4315C159.36 77.4315 159.264 77.3831 159.167 77.2864C159.07 77.1897 158.993 77.0639 158.944 76.8995C158.896 76.7447 158.867 76.5705 158.867 76.3867C158.867 76.2706 158.877 76.1546 158.896 76.0675C158.915 75.9707 158.964 75.8643 159.022 75.7482C159.08 75.6322 159.167 75.5064 159.273 75.371C159.38 75.2355 159.506 75.0807 159.651 74.9163C159.738 74.8099 159.815 74.7228 159.873 74.6551C159.931 74.5874 159.989 74.539 160.057 74.51C160.115 74.4809 160.212 74.4713 160.338 74.4713C160.434 74.4713 160.521 74.4809 160.608 74.51C160.695 74.539 160.734 74.5583 160.734 74.5874C160.734 74.6454 160.686 74.7421 160.599 74.8776C160.512 75.013 160.367 75.1871 160.173 75.3903C159.98 75.5934 159.747 75.7869 159.496 75.9804C159.438 76.1545 159.409 76.29 159.409 76.3867C159.409 76.5125 159.457 76.5802 159.554 76.5802C159.593 76.5802 159.651 76.5512 159.738 76.4835C159.825 76.4254 159.96 76.2997 160.163 76.1255C160.357 75.9514 160.541 75.7966 160.695 75.6612C160.812 75.5644 160.947 75.4097 161.102 75.2065C161.257 75.0033 161.382 74.8486 161.479 74.7518C161.702 74.5196 161.856 74.3649 161.934 74.2971C162.011 74.2294 162.089 74.1907 162.166 74.1907C162.234 74.1907 162.282 74.2101 162.311 74.2584C162.34 74.3068 162.35 74.3939 162.35 74.5293C162.35 74.5874 162.34 74.6454 162.33 74.6841C162.321 74.7228 162.292 74.7712 162.253 74.8292C162.214 74.8873 162.137 75.0033 162.03 75.1678C161.914 75.3323 161.779 75.5257 161.624 75.7482C161.537 75.874 161.469 75.9998 161.402 76.1449C161.344 76.29 161.305 76.3964 161.305 76.4641C161.305 76.6189 161.363 76.6963 161.489 76.6963C161.595 76.6963 161.711 76.6576 161.847 76.5705C161.982 76.4835 162.185 76.3383 162.466 76.1158V76.4158C162.118 76.735 161.856 76.9768 161.692 77.122C161.527 77.2671 161.382 77.3831 161.257 77.4509C161.131 77.5283 161.015 77.5669 160.908 77.5669C160.657 77.5669 160.531 77.4122 160.531 77.1123C160.531 76.9962 160.57 76.8414 160.647 76.6576C160.724 76.4835 160.85 76.2029 161.015 75.8353ZM157.987 74.955C157.735 75.1001 157.522 75.2355 157.348 75.3613C157.174 75.4774 157.019 75.6031 156.903 75.7289C156.777 75.8547 156.7 75.9804 156.661 76.1062C156.584 76.4448 156.545 76.6189 156.545 76.6479C156.545 76.8414 156.681 76.9478 156.961 76.9478C157.087 76.9478 157.3 76.8414 157.609 76.6189C157.561 76.4738 157.532 76.348 157.532 76.2126C157.532 76.0288 157.571 75.8353 157.648 75.6321C157.716 75.4387 157.832 75.2162 157.987 74.955ZM158.906 76.1352V76.4351C158.712 76.6189 158.548 76.735 158.432 76.793C158.316 76.8511 158.142 76.8801 157.919 76.8607C157.532 77.3251 157.184 77.5573 156.894 77.5573C156.729 77.5573 156.574 77.4992 156.439 77.3928C156.303 77.2767 156.187 77.1316 156.11 76.9381C156.023 76.7447 155.984 76.5318 155.984 76.2997C155.984 76.1062 156.042 75.8934 156.178 75.6612C156.303 75.429 156.468 75.2065 156.671 75.013C156.874 74.8099 157.087 74.6454 157.319 74.5196C157.551 74.3939 157.764 74.3358 157.958 74.3358C158.103 74.3358 158.209 74.3552 158.287 74.4036C158.364 74.4519 158.403 74.51 158.403 74.5874C158.403 74.6454 158.374 74.7131 158.296 74.7905C158.412 74.8099 158.49 74.8485 158.528 74.9066C158.567 74.9646 158.587 75.0614 158.587 75.2065C158.587 75.3516 158.558 75.5354 158.49 75.7482C158.422 75.9707 158.335 76.1739 158.219 76.3577L158.296 76.4351H158.364C158.412 76.4351 158.461 76.4254 158.509 76.3964C158.558 76.3674 158.606 76.348 158.645 76.319C158.693 76.2997 158.78 76.2319 158.906 76.1352ZM150.876 74.4326L150.954 73.9102C150.983 73.7264 151.031 73.5813 151.099 73.4748C151.167 73.3588 151.283 73.233 151.457 73.0976C151.631 72.9621 151.892 72.7686 152.26 72.5171C153.13 71.9077 153.808 71.6078 154.291 71.6078C154.436 71.6078 154.543 71.6368 154.601 71.6948C154.659 71.7529 154.698 71.8593 154.698 72.0044C154.698 72.1108 154.659 72.2559 154.581 72.43C154.504 72.6139 154.359 72.9041 154.146 73.3007C153.933 73.6974 153.75 74.0456 153.585 74.3649C153.45 74.626 153.305 74.8969 153.14 75.1871C152.976 75.4774 152.86 75.6708 152.801 75.7773C152.743 75.8837 152.714 75.9611 152.714 76.0191C152.714 76.0772 152.734 76.1352 152.772 76.1739C152.811 76.2126 152.86 76.2416 152.918 76.2416C152.995 76.2416 153.082 76.2029 153.179 76.1158C153.276 76.0288 153.469 75.8546 153.75 75.5741C153.885 75.4387 154.03 75.2742 154.195 75.0807C154.349 74.8969 154.543 74.6454 154.775 74.3552C155.007 74.0553 155.22 73.7844 155.423 73.5329C155.549 73.3781 155.655 73.233 155.752 73.1072C155.849 72.9815 155.936 72.8847 156.004 72.817C156.071 72.7493 156.129 72.7203 156.168 72.7203C156.207 72.7203 156.265 72.7686 156.342 72.8557L156.449 72.9911C156.526 73.1072 156.565 73.1846 156.565 73.233C156.565 73.291 156.449 73.5135 156.226 73.8908C156.004 74.2681 155.81 74.597 155.655 74.8776C155.501 75.1581 155.297 75.5548 155.056 76.0772C154.814 76.5996 154.572 77.18 154.349 77.8185C154.959 77.3638 155.375 77.0542 155.597 76.8995C155.82 76.7447 155.984 76.6673 156.091 76.6673C156.158 76.6673 156.197 76.6963 156.197 76.7543C156.197 76.8124 156.168 76.8994 156.1 76.9962C156.033 77.0929 155.946 77.209 155.839 77.3251C155.733 77.4412 155.559 77.625 155.336 77.8475C155.114 78.0797 154.872 78.3215 154.611 78.5924C154.446 78.7569 154.291 78.9503 154.136 79.1632C153.982 79.3857 153.866 79.5501 153.779 79.6662C153.691 79.7823 153.614 79.85 153.546 79.8694C153.45 79.8984 153.353 79.879 153.266 79.8017C153.179 79.7243 153.14 79.6082 153.14 79.4437C153.14 79.3276 153.198 79.0954 153.314 78.7375C153.43 78.3796 153.604 77.9346 153.837 77.4122C153.972 77.0929 154.117 76.793 154.262 76.5125C154.407 76.2319 154.572 75.9224 154.756 75.5838C154.939 75.2452 155.123 74.926 155.307 74.6164C155.491 74.3068 155.636 74.0553 155.762 73.8328C155.462 74.2294 155.162 74.6067 154.872 74.9743C154.581 75.3419 154.253 75.7289 153.885 76.1449C153.517 76.5512 153.15 76.9381 152.782 77.2961C152.618 77.4509 152.502 77.5476 152.434 77.6057C152.366 77.6637 152.269 77.6927 152.153 77.6927C152.086 77.6927 152.008 77.6637 151.94 77.6153C151.873 77.5669 151.815 77.4992 151.776 77.4218C151.728 77.3445 151.708 77.2671 151.708 77.1897C151.708 77.0639 151.728 76.9575 151.766 76.8607C151.805 76.764 151.873 76.6189 151.96 76.4254C152.366 75.6031 152.666 75.042 152.85 74.7325C153.517 73.6683 153.846 73.0685 153.846 72.9428C153.846 72.9041 153.827 72.8654 153.798 72.846C153.769 72.817 153.73 72.8073 153.682 72.8073C153.595 72.8073 153.498 72.846 153.382 72.9137C153.266 72.9911 153.121 73.0976 152.947 73.2427C152.772 73.3878 152.56 73.5619 152.298 73.7554C152.047 73.9586 151.776 74.152 151.505 74.3262C151.399 74.3939 151.273 74.4809 151.128 74.5777C150.992 74.6744 150.905 74.7228 150.886 74.7228C150.847 74.7228 150.828 74.7034 150.828 74.6647C150.847 74.6454 150.857 74.5583 150.876 74.4326ZM147.026 76.0191C147.297 75.9127 147.529 75.7869 147.713 75.6321C147.906 75.4774 148.042 75.3226 148.139 75.1871C148.226 75.042 148.274 74.9453 148.274 74.8776C148.274 74.8099 148.245 74.7712 148.177 74.7712C148.119 74.7712 148.032 74.8002 147.916 74.8776C147.8 74.9453 147.674 75.0324 147.548 75.1484C147.423 75.2549 147.316 75.3903 147.21 75.5354C147.123 75.6805 147.065 75.8353 147.026 76.0191ZM146.987 76.3093V76.4254C146.987 76.5996 147.026 76.735 147.113 76.8414C147.2 76.9381 147.316 76.9865 147.452 76.9865C147.597 76.9865 147.752 76.9575 147.906 76.8801C148.061 76.8124 148.216 76.7156 148.371 76.6092C148.526 76.4931 148.719 76.3384 148.942 76.1545V76.4254C148.603 76.8317 148.284 77.1413 147.993 77.3638C147.694 77.5766 147.394 77.6927 147.094 77.6927C146.833 77.6927 146.62 77.5863 146.465 77.3832C146.31 77.18 146.233 76.8994 146.233 76.5318C146.233 76.2223 146.31 75.932 146.455 75.6805C146.6 75.429 146.842 75.1581 147.171 74.8679C147.403 74.6744 147.626 74.5293 147.848 74.4326C148.071 74.3358 148.274 74.2875 148.448 74.2875C148.593 74.2875 148.7 74.3165 148.787 74.3842C148.874 74.4519 148.913 74.5487 148.913 74.6744C148.913 74.8582 148.845 75.0517 148.7 75.2355C148.555 75.4193 148.342 75.6031 148.052 75.7966C147.761 75.9611 147.403 76.1352 146.987 76.3093ZM144.521 76.377C144.637 76.2997 144.772 76.1836 144.946 76.0288C145.12 75.874 145.256 75.7095 145.382 75.5354C145.498 75.371 145.565 75.2258 145.565 75.1098C145.565 75.0614 145.546 75.042 145.507 75.042C145.391 75.042 145.198 75.1485 144.927 75.371C144.646 75.5935 144.375 75.874 144.114 76.2126C144.211 76.2126 144.356 76.261 144.521 76.377ZM146.301 76.1449V76.4448C145.962 76.8414 145.681 77.1316 145.459 77.3348C145.236 77.5379 145.043 77.6347 144.888 77.6347C144.743 77.6347 144.608 77.596 144.491 77.5089C144.375 77.4218 144.269 77.3058 144.172 77.151C144.076 76.9962 143.969 76.7834 143.834 76.5125C143.679 76.6963 143.543 76.8801 143.418 77.0349C143.292 77.1993 143.205 77.3058 143.166 77.3638C143.118 77.4218 143.069 77.4412 143.04 77.4412C142.963 77.4412 142.905 77.3928 142.866 77.2864C142.828 77.18 142.808 77.0349 142.808 76.8317C142.808 76.5609 142.837 76.2997 142.905 76.0578C142.973 75.8063 143.06 75.5644 143.186 75.3323C143.311 75.1001 143.466 74.8389 143.65 74.568C143.843 74.2971 144.056 74.0069 144.288 73.707C144.617 73.291 144.898 72.9524 145.13 72.6913C145.362 72.4301 145.575 72.2269 145.749 72.1011C145.923 71.9657 146.068 71.898 146.184 71.898C146.33 71.898 146.397 71.9657 146.397 72.0915C146.397 72.1979 146.136 72.6042 145.604 73.291C145.072 73.9779 144.298 74.9163 143.292 76.1062V76.4931C143.969 75.7676 144.521 75.2258 144.937 74.8776C145.352 74.5196 145.672 74.3455 145.904 74.3455C145.991 74.3455 146.068 74.4036 146.117 74.51C146.165 74.6164 146.194 74.7421 146.194 74.8873C146.194 75.1775 146.068 75.4483 145.817 75.6999C145.565 75.9514 145.178 76.2319 144.656 76.5609C144.743 76.6963 144.83 76.793 144.898 76.8511C144.966 76.9091 145.053 76.9478 145.159 76.9478C145.246 76.9478 145.352 76.9188 145.459 76.8511C145.565 76.793 145.672 76.706 145.788 76.6092C145.894 76.5222 146.068 76.3577 146.301 76.1449ZM141.86 74.8486C141.086 75.2065 140.525 75.5064 140.196 75.7579C139.867 76.0094 139.703 76.261 139.703 76.5222C139.703 76.6189 139.722 76.6963 139.751 76.7543C139.78 76.8124 139.829 76.8414 139.887 76.8414C139.916 76.8414 139.983 76.8221 140.061 76.7834C140.37 76.5995 140.661 76.3577 140.922 76.0578C141.183 75.7676 141.493 75.3613 141.86 74.8486ZM139.703 75.3419C140.158 74.926 140.603 74.626 141.028 74.4229C141.454 74.2197 141.783 74.123 142.015 74.123C142.073 74.123 142.131 74.152 142.189 74.2004C142.247 74.2488 142.286 74.3165 142.315 74.3842C142.344 74.4519 142.363 74.5003 142.363 74.539C142.363 74.597 142.344 74.6357 142.305 74.6551C142.266 74.6841 142.189 74.7131 142.083 74.7421C142.102 74.7905 142.131 74.8486 142.16 74.9259C142.189 75.0033 142.218 75.0614 142.237 75.1098C142.257 75.1581 142.266 75.1968 142.266 75.2355C142.266 75.3032 142.199 75.4387 142.054 75.6321C141.909 75.8256 141.812 75.9707 141.744 76.0675C141.686 76.1642 141.657 76.2706 141.657 76.4061C141.657 76.6286 141.754 76.735 141.957 76.735C142.17 76.735 142.499 76.5415 142.944 76.1449V76.4158C142.189 77.2574 141.647 77.6734 141.318 77.6734C141.202 77.6734 141.115 77.6347 141.067 77.5573C141.019 77.4799 140.99 77.3735 140.99 77.2187C140.99 76.9865 141.077 76.6382 141.251 76.1932C140.815 76.6769 140.486 77.0252 140.274 77.2284C140.061 77.4315 139.887 77.5379 139.751 77.5379C139.684 77.5379 139.606 77.4799 139.509 77.3638C139.413 77.2477 139.326 77.1026 139.248 76.9188C139.171 76.735 139.132 76.5512 139.132 76.3577C139.132 76.2126 139.142 76.0965 139.171 76.0094C139.2 75.9127 139.248 75.816 139.326 75.7192C139.413 75.6322 139.538 75.5064 139.703 75.3419ZM139.219 76.1255V76.4351C138.939 76.6963 138.697 76.9188 138.494 77.0736C138.29 77.238 138.097 77.3831 137.894 77.5089C137.7 77.6347 137.536 77.7314 137.4 77.7895C137.275 77.8475 137.159 77.8765 137.062 77.8765C136.839 77.8765 136.665 77.7895 136.52 77.6347C136.375 77.4702 136.307 77.2574 136.307 76.9962C136.307 76.6963 136.365 76.4061 136.491 76.1062C136.607 75.816 136.781 75.5064 137.013 75.1968C137.236 74.8872 137.517 74.5293 137.855 74.1424C138.107 73.8521 138.232 73.6973 138.232 73.6587C138.232 73.6393 138.223 73.62 138.213 73.6006C138.194 73.5909 138.184 73.5813 138.165 73.5813C138.107 73.5813 137.933 73.707 137.642 73.9585C137.352 74.2101 136.975 74.5777 136.51 75.0711C136.056 75.5548 135.553 76.1352 135.021 76.8124C134.992 76.8511 134.895 76.9672 134.73 77.18C134.576 77.3831 134.46 77.5186 134.392 77.5863C134.324 77.6443 134.266 77.683 134.218 77.683C134.131 77.683 134.063 77.596 134.005 77.4315C133.947 77.2574 133.908 77.0832 133.908 76.8898C133.908 76.7737 133.947 76.6479 134.024 76.5125C134.102 76.377 134.266 76.1352 134.527 75.7869C134.779 75.4387 134.992 75.1484 135.166 74.9066C135.33 74.6647 135.514 74.3745 135.717 74.0359C135.862 73.7941 135.959 73.6103 136.027 73.4748C136.094 73.3297 136.123 73.2136 136.123 73.0976C136.123 73.0008 136.094 72.9621 136.046 72.9621C135.93 72.9621 135.717 73.1169 135.408 73.4168C135.088 73.7167 134.701 74.1714 134.237 74.7712C133.773 75.3709 133.289 76.0578 132.786 76.8511C132.621 77.122 132.505 77.2961 132.438 77.3928C132.37 77.4799 132.293 77.5283 132.205 77.5283C132.099 77.5283 132.002 77.4122 131.915 77.1897C131.828 76.9672 131.78 76.7834 131.78 76.6479C131.78 76.5995 131.799 76.5512 131.838 76.5028C132.235 75.9804 132.554 75.5257 132.815 75.1581C133.066 74.7905 133.299 74.4422 133.492 74.1133C133.686 73.7844 133.831 73.5135 133.927 73.3007C134.015 73.0879 134.063 72.9138 134.063 72.7977C134.063 72.6719 134.005 72.6042 133.889 72.6042C133.792 72.6042 133.628 72.6622 133.395 72.788C133.163 72.9138 132.873 73.0782 132.525 73.291C132.176 73.5039 131.896 73.6683 131.683 73.7747C131.47 73.8908 131.315 73.9392 131.209 73.9392C131.112 73.9392 131.064 73.8811 131.064 73.7747C131.064 73.7167 131.083 73.5716 131.122 73.3394C131.161 73.1169 131.209 72.9524 131.248 72.8654C131.306 72.7493 131.47 72.5848 131.731 72.3914C131.993 72.1979 132.138 72.0915 132.157 72.0915C132.186 72.0915 132.196 72.1011 132.196 72.1205C132.196 72.1302 132.186 72.1495 132.157 72.1785C132.031 72.2753 131.944 72.3623 131.886 72.4204C131.828 72.4784 131.79 72.5558 131.77 72.6235C132.322 72.2946 132.805 72.0431 133.241 71.869C133.676 71.6948 133.976 71.6078 134.14 71.6078C134.227 71.6078 134.305 71.6658 134.382 71.7722C134.46 71.8883 134.518 72.0141 134.576 72.1592C134.624 72.3043 134.653 72.401 134.653 72.4397C134.653 72.5945 134.614 72.7686 134.537 72.9815C134.46 73.1943 134.353 73.4362 134.218 73.707C134.082 73.9779 133.918 74.3262 133.724 74.7421C133.879 74.539 134.034 74.3552 134.169 74.181C134.314 74.0069 134.45 73.8425 134.585 73.6877C134.721 73.5232 134.866 73.3588 135.011 73.1943C135.204 72.9718 135.427 72.759 135.669 72.5558C135.911 72.3527 136.143 72.1882 136.346 72.0528C136.559 71.927 136.704 71.8593 136.772 71.8593C136.878 71.8593 136.965 71.9173 137.052 72.0334C137.139 72.1495 137.178 72.2753 137.178 72.401C137.178 72.4881 137.12 72.6526 137.004 72.8944C136.888 73.1363 136.723 73.4555 136.51 73.8425C136.298 74.2294 136.007 74.7228 135.649 75.3226C135.988 74.955 136.346 74.5874 136.714 74.2004C137.081 73.8134 137.352 73.5329 137.536 73.3588C137.72 73.1846 137.865 73.0492 137.981 72.9525C138.145 72.8267 138.31 72.6913 138.474 72.5461C138.639 72.401 138.774 72.2849 138.871 72.2075C138.968 72.1205 139.055 72.0624 139.122 72.0141C139.2 71.9657 139.268 71.9463 139.326 71.9463C139.403 71.9463 139.5 72.0334 139.616 72.2172C139.732 72.401 139.79 72.5074 139.79 72.5655C139.79 72.6235 139.751 72.7009 139.684 72.788C139.616 72.8751 139.471 73.0395 139.248 73.2717C138.842 73.707 138.484 74.152 138.194 74.597C137.894 75.042 137.671 75.4483 137.517 75.816C137.362 76.1836 137.284 76.4738 137.284 76.6866C137.284 76.8221 137.313 76.9091 137.362 76.9768C137.41 77.0349 137.488 77.0639 137.594 77.0639C137.691 77.0639 137.778 77.0446 137.865 77.0059C137.942 76.9672 138.039 76.9188 138.136 76.8511C138.232 76.7834 138.329 76.7253 138.416 76.6673C138.542 76.5899 138.668 76.5125 138.784 76.4254C138.9 76.3384 138.997 76.2706 139.064 76.2223C139.132 76.1836 139.18 76.1449 139.219 76.1255Z" fill="#FA0F00"/>
<path d="M197.96 76.0192C198.231 75.9127 198.463 75.787 198.647 75.6322C198.84 75.4774 198.976 75.3226 199.072 75.1872C199.159 75.0421 199.208 74.9453 199.208 74.8776C199.208 74.8099 199.179 74.7712 199.111 74.7712C199.053 74.7712 198.966 74.8002 198.85 74.8776C198.734 74.9453 198.608 75.0324 198.482 75.1485C198.357 75.2549 198.25 75.3903 198.144 75.5355C198.057 75.6806 197.989 75.8353 197.96 76.0192ZM197.912 76.3094V76.4255C197.912 76.5996 197.95 76.735 198.037 76.8414C198.124 76.9382 198.24 76.9866 198.376 76.9866C198.521 76.9866 198.676 76.9575 198.831 76.8801C198.985 76.8124 199.14 76.7157 199.295 76.6093C199.45 76.4932 199.643 76.3384 199.866 76.1546V76.4255C199.527 76.8318 199.208 77.1413 198.918 77.3638C198.618 77.5767 198.318 77.6928 198.018 77.6928C197.757 77.6928 197.544 77.5863 197.389 77.3832C197.234 77.18 197.157 76.8995 197.157 76.5319C197.157 76.2223 197.234 75.9321 197.379 75.6806C197.525 75.429 197.766 75.1582 198.095 74.8679C198.327 74.6745 198.55 74.5294 198.772 74.4326C198.995 74.3359 199.198 74.2875 199.372 74.2875C199.517 74.2875 199.624 74.3165 199.701 74.3842C199.788 74.452 199.827 74.5487 199.827 74.6745C199.827 74.8583 199.759 75.0518 199.614 75.2356C199.469 75.4194 199.256 75.6032 198.976 75.7967C198.695 75.9611 198.337 76.1352 197.912 76.3094ZM195.89 75.2839C196.044 75.1291 196.199 74.955 196.344 74.7615C196.489 74.568 196.625 74.3649 196.76 74.1424C196.886 73.9199 196.992 73.7264 197.06 73.5426C197.138 73.3685 197.167 73.233 197.167 73.146C197.167 73.0783 197.138 73.0396 197.099 73.0396C197.08 73.0396 197.051 73.0589 196.992 73.0879C196.809 73.2427 196.606 73.5329 196.373 73.9683C196.151 74.4036 195.986 74.8486 195.89 75.2839ZM197.234 76.0965V76.4255C196.606 77.2574 196.102 77.6637 195.706 77.6637C195.493 77.6637 195.329 77.5476 195.203 77.3155C195.087 77.0833 195.019 76.7834 195.019 76.4061C195.019 76.1062 195.087 75.7386 195.232 75.3226C195.377 74.897 195.57 74.4713 195.812 74.0456C196.054 73.6103 196.306 73.233 196.557 72.9138C196.818 72.5945 197.06 72.3624 197.283 72.2366C197.37 72.1786 197.437 72.1592 197.496 72.1592C197.554 72.1592 197.602 72.1882 197.621 72.2463C197.641 72.3043 197.65 72.4011 197.65 72.5268C197.65 72.9428 197.486 73.4555 197.147 74.065C196.809 74.6745 196.335 75.2936 195.735 75.9224C195.706 76.0772 195.686 76.1933 195.686 76.2804C195.686 76.4738 195.725 76.6286 195.812 76.7447C195.899 76.8608 196.006 76.9285 196.151 76.9285C196.228 76.9285 196.306 76.8995 196.393 76.8414C196.48 76.7834 196.567 76.706 196.664 76.6189C196.77 76.5222 196.963 76.3481 197.234 76.0965ZM193.713 76.319L192.91 76.9962C192.533 77.3251 192.272 77.4896 192.146 77.4896C192.03 77.4896 191.904 77.3542 191.778 77.093C191.652 76.8221 191.585 76.5899 191.585 76.3868C191.585 76.2126 191.614 76.0675 191.662 75.9514C191.71 75.8353 191.807 75.6806 191.933 75.4871C192.117 75.2356 192.291 75.0131 192.455 74.8389C192.62 74.6648 192.775 74.5294 192.9 74.4326C193.026 74.3359 193.123 74.2875 193.171 74.2875C193.249 74.2875 193.326 74.3262 193.403 74.4133C193.481 74.5003 193.52 74.5874 193.52 74.6745C193.52 74.7325 193.481 74.8196 193.394 74.9453C193.307 75.0711 193.181 75.2259 193.007 75.4194C192.833 75.6129 192.581 75.845 192.262 76.1159L192.175 76.3577C192.155 76.4061 192.136 76.4448 192.136 76.4835C192.136 76.5609 192.175 76.6093 192.262 76.6093C192.349 76.6093 192.542 76.5029 192.852 76.29C193.162 76.0772 193.5 75.7967 193.858 75.429C194.003 75.2839 194.119 75.1678 194.206 75.0614C194.293 74.955 194.38 74.8486 194.458 74.7615C194.535 74.6648 194.593 74.5971 194.642 74.5487C194.69 74.5003 194.738 74.4713 194.777 74.4713C194.855 74.4616 194.913 74.4907 194.951 74.5681C194.99 74.6358 195.009 74.7422 195.009 74.8873C195.009 74.9647 194.971 75.0711 194.903 75.1872C194.835 75.313 194.7 75.5161 194.497 75.8063C194.303 76.0965 194.1 76.3964 193.906 76.7157C193.713 77.0253 193.51 77.3832 193.307 77.7701C193.316 77.7605 193.403 77.6734 193.587 77.4993C193.761 77.3251 193.945 77.151 194.139 76.9672C194.332 76.7834 194.497 76.6286 194.622 76.5222C194.748 76.4061 194.903 76.2803 195.096 76.1352V76.4351C194.69 76.8705 194.322 77.2768 193.994 77.6637C193.665 78.0507 193.413 78.3603 193.239 78.5924C193.065 78.8246 192.958 78.9601 192.929 78.9988C192.852 79.1052 192.775 79.2019 192.707 79.289C192.639 79.376 192.591 79.4534 192.542 79.5018C192.504 79.5502 192.465 79.5792 192.436 79.5792C192.378 79.5792 192.32 79.5211 192.272 79.3954C192.223 79.2696 192.194 79.1632 192.194 79.0665C192.194 78.9794 192.214 78.902 192.243 78.8343C192.484 78.3603 192.968 77.5186 193.713 76.319ZM190.927 73.8135H191.12C191.275 73.5329 191.42 73.3298 191.556 73.2137C191.681 73.0976 191.827 73.0396 191.991 73.0396C192.155 73.0396 192.243 73.0782 192.243 73.1556C192.243 73.1943 192.175 73.2911 192.049 73.4459C191.923 73.6006 191.827 73.7361 191.759 73.8425C191.856 73.8522 191.952 73.8618 192.03 73.8715C192.107 73.8812 192.175 73.8909 192.214 73.8909C192.039 74.2101 191.827 74.5294 191.575 74.8583C191.488 74.8486 191.42 74.8486 191.362 74.8389C191.304 74.8389 191.246 74.8293 191.188 74.8293C191.13 74.8293 191.062 74.8196 190.975 74.8099C190.811 75.0711 190.675 75.3033 190.569 75.5064C190.463 75.7096 190.375 75.9031 190.317 76.0675C190.259 76.2417 190.23 76.3964 190.23 76.5512C190.23 76.7544 190.317 76.8608 190.472 76.8608C190.588 76.8608 190.733 76.8027 190.917 76.677C191.101 76.5512 191.343 76.3674 191.652 76.1159V76.4158C190.84 77.2961 190.25 77.7315 189.863 77.7315C189.727 77.7315 189.621 77.6831 189.534 77.5767C189.447 77.4703 189.408 77.3348 189.408 77.1704C189.408 77.064 189.427 76.9285 189.476 76.7737C189.524 76.6189 189.602 76.3868 189.727 76.0869C189.689 76.1256 189.65 76.1546 189.611 76.1933C189.573 76.2223 189.543 76.261 189.505 76.29C189.476 76.319 189.437 76.3481 189.408 76.3771C189.369 76.4061 189.34 76.4351 189.302 76.4738V76.1643C189.611 75.9031 189.998 75.4387 190.443 74.7712C190.395 74.7712 190.356 74.7712 190.317 74.7615C190.279 74.7615 190.23 74.7615 190.182 74.7615C190.008 74.7615 189.872 74.7712 189.785 74.8002C189.747 74.8099 189.718 74.8196 189.689 74.8293C189.66 74.8389 189.631 74.8486 189.621 74.8486C189.611 74.8486 189.602 74.8389 189.602 74.8196C189.602 74.7228 189.66 74.5777 189.785 74.3746C189.882 74.2101 189.979 74.0844 190.066 74.007C190.153 73.9296 190.259 73.8715 190.385 73.8425C190.511 73.8328 190.695 73.8135 190.927 73.8135ZM188.054 76.261C187.976 76.1256 187.87 75.9998 187.715 75.8934C187.57 75.787 187.396 75.6902 187.212 75.6225C187.028 75.5548 186.825 75.5064 186.632 75.4677C186.032 75.3807 185.461 75.1872 184.939 74.8776C184.89 74.8583 184.842 74.8002 184.794 74.7228C184.745 74.6454 184.716 74.568 184.716 74.5003C184.716 74.2391 184.765 73.9779 184.852 73.7071C184.939 73.4459 185.055 73.233 185.19 73.0879C185.413 72.8364 185.809 72.6236 186.39 72.4398C186.97 72.256 187.618 72.1592 188.334 72.1592C188.76 72.1592 189.098 72.1882 189.331 72.256C189.563 72.3237 189.679 72.4204 189.679 72.5655C189.679 72.788 189.65 72.9622 189.582 73.0879C189.524 73.2137 189.456 73.2911 189.389 73.3298C189.321 73.3685 189.195 73.4265 189.021 73.4942C188.837 73.562 188.673 73.6297 188.528 73.6974C188.392 73.7651 188.267 73.8425 188.17 73.9005C188.073 73.9683 188.015 73.9973 187.986 73.9973C187.957 73.9973 187.938 73.9876 187.938 73.9586C187.938 73.9102 187.986 73.8328 188.092 73.7264C188.199 73.62 188.334 73.5329 188.489 73.4555C188.653 73.3685 188.731 73.3104 188.731 73.2911C188.731 73.2524 188.644 73.233 188.46 73.233C187.909 73.233 187.396 73.2814 186.922 73.3782C186.448 73.4749 186.08 73.6103 185.809 73.7651C185.538 73.9296 185.403 74.094 185.403 74.2585C185.403 74.3649 185.461 74.4423 185.567 74.481C185.684 74.5197 185.925 74.5971 186.312 74.6938C186.69 74.7906 187.038 74.9163 187.338 75.0421C187.773 75.2259 188.092 75.4194 188.305 75.6225C188.518 75.8257 188.615 76.0482 188.615 76.2997C188.615 76.4738 188.576 76.6383 188.489 76.8124C188.412 76.9865 188.286 77.1413 188.131 77.2864C187.976 77.4316 187.792 77.5476 187.58 77.6444C187.406 77.7218 187.183 77.7895 186.912 77.8572C186.641 77.9249 186.351 77.9733 186.041 78.012C185.732 78.0507 185.432 78.07 185.151 78.07C184.629 78.07 184.203 78.0217 183.884 77.9249C183.565 77.8282 183.41 77.6734 183.41 77.4799C183.41 77.3929 183.468 77.2478 183.575 77.064C183.681 76.8705 183.807 76.7447 183.952 76.677C184.078 76.6286 184.203 76.5996 184.32 76.5899C184.436 76.5802 184.503 76.5996 184.503 76.6286C184.503 76.6383 184.503 76.648 184.494 76.6576C184.484 76.6673 184.474 76.677 184.465 76.677C184.455 76.6867 184.436 76.6867 184.426 76.6963C184.368 76.7254 184.32 76.735 184.281 76.7544C184.242 76.764 184.213 76.7834 184.194 76.7931C184.174 76.8028 184.165 76.8221 184.165 76.8511C184.165 76.9188 184.474 76.9479 185.093 76.9479C185.635 76.9479 186.071 76.9285 186.419 76.8898C186.767 76.8511 187.067 76.7834 187.328 76.677C187.599 76.5802 187.841 76.4448 188.054 76.261Z" fill="#FA0F00"/>
<mask id="mask4_388_7315" style="mask-type:luminance" maskUnits="userSpaceOnUse" x="100" y="19" width="102" height="40">
<path d="M184.677 58.4799C193.113 58.4799 198.434 53.5269 201.152 45.8457L200.717 45.5651C197.998 49.5992 193.403 52.9658 188.363 52.9658C178.892 52.9658 174.094 45.9714 174.094 37.0907C174.094 30.5704 177.296 20.7029 185.248 20.7029C189.243 20.7029 191.246 23.0634 191.246 26.9814C191.246 27.6585 191.004 28.2583 191.004 28.9355C191.004 31.0154 192.687 32.3698 194.68 32.3698C197.041 32.3698 198.879 30.6865 198.879 28.2874C198.879 21.293 190.163 19.4937 184.687 19.4937C172.933 19.4937 166.094 27.6489 166.094 39.0836C166.094 50.7698 172.73 58.4799 184.677 58.4799ZM142.025 41.4537V24.379C142.025 21.5833 142.421 21.0222 145.459 21.0222H146.9C150.896 21.0222 154.214 23.1795 154.214 27.6585C154.214 35.8524 144.066 36.2974 142.025 41.4537ZM148.942 38.0194C153.217 38.0194 155.259 41.7729 155.259 46.5326C155.259 52.008 153.982 56.9708 147.665 56.9708H145.265C143.186 56.9708 142.025 56.0905 142.025 53.2947V44.3752C142.828 41.1731 145.498 38.0194 148.942 38.0194ZM134.024 24.379V53.6043C134.024 55.481 132.863 57.1643 131.064 57.6867V58.1704H148.09C155.926 58.1704 163.685 56.5355 163.685 47.2968C163.685 41.2989 159.602 36.665 153.295 36.3071C157.455 35.4268 161.45 32.7471 161.45 28.1132C161.45 20.9158 154.378 19.8419 148.613 19.8419H131.074V20.3256C132.873 20.8287 134.024 22.5023 134.024 24.379ZM100.126 49.6863C100.126 56.1195 106.405 58.4799 111.842 58.4799C120.277 58.4799 126.749 54.6781 126.749 45.1685V24.379C126.749 22.4152 127.949 20.819 129.71 20.2966V19.8129H115.798V20.2966C117.559 20.819 118.759 22.4152 118.759 24.379V44.9653C118.759 49.5605 117.762 57.2804 111.803 57.2804C108.601 57.2804 107.45 54.3975 107.45 51.8436C107.45 50.2087 108.291 49.1252 108.291 47.8869C108.291 46.3294 106.85 44.9653 104.973 44.9653C101.723 44.975 100.126 47.4516 100.126 49.6863Z" fill="white"/>
</mask>
<g mask="url(#mask4_388_7315)">
<path d="M201.152 19.5033H100.126V58.4799H201.152V19.5033Z" fill="url(#paint4_linear_388_7315)"/>
</g>
<defs>
<linearGradient id="paint0_linear_388_7315" x1="50.324" y1="16.6" x2="49.4146" y2="82.3059" gradientUnits="userSpaceOnUse">
<stop stop-color="#FA0400"/>
<stop offset="1" stop-color="#FC9D00"/>
</linearGradient>
<linearGradient id="paint1_linear_388_7315" x1="39.6473" y1="12.5241" x2="39.5699" y2="23.9684" gradientUnits="userSpaceOnUse">
<stop stop-color="#FA0400"/>
<stop offset="1" stop-color="#FC9D00"/>
</linearGradient>
<linearGradient id="paint2_linear_388_7315" x1="74.1803" y1="28.4918" x2="75.9216" y2="44.0186" gradientUnits="userSpaceOnUse">
<stop stop-color="#FA0400"/>
<stop offset="1" stop-color="#FC9D00"/>
</linearGradient>
<linearGradient id="paint3_linear_388_7315" x1="22.519" y1="41.2803" x2="23.825" y2="52.5505" gradientUnits="userSpaceOnUse">
<stop stop-color="#FA0400"/>
<stop offset="1" stop-color="#FC9D00"/>
</linearGradient>
<linearGradient id="paint4_linear_388_7315" x1="150.223" y1="54.3798" x2="151.094" y2="22.1654" gradientUnits="userSpaceOnUse">
<stop stop-color="#FA0400"/>
<stop offset="1" stop-color="#FC9D00"/>
</linearGradient>
</defs>
</svg>
